Coordinates
version=1
nRows=17
nColumns=36
inDegrees=yes

Units are S.I. units (second, meters, Newtons, ...)
If the header above contains a line with 'inDegrees', this indicates whether rotational values are in degrees (yes) or radians (no).

endheader
time	pelvis_tilt	pelvis_list	pelvis_rotation	pelvis_tx	pelvis_ty	pelvis_tz	hip_flexion_r	hip_adduction_r	hip_rotation_r	knee_angle_r	knee_angle_r_beta	ankle_angle_r	subtalar_angle_r	mtp_angle_r	hip_flexion_l	hip_adduction_l	hip_rotation_l	knee_angle_l	knee_angle_l_beta	ankle_angle_l	subtalar_angle_l	mtp_angle_l	lumbar_extension	lumbar_bending	lumbar_rotation	arm_flex_r	arm_add_r	arm_rot_r	elbow_flex_r	pro_sup_r	arm_flex_l	arm_add_l	arm_rot_l	elbow_flex_l	pro_sup_l
      2.24000000	    -26.15688323	     -0.66512099	     -2.71859911	     -0.38308599	      0.67088106	     -0.59382627	     85.03756864	     -6.03914478	      2.92813760	     84.09485467	      1.46773210	     21.23763241	    -19.23645968	     -7.37901197	     85.61014230	    -10.75855330	      5.74328089	     85.21053171	      1.48720434	     25.16426448	     -8.97479553	     -7.37901197	    -23.04738373	      0.41857282	      0.79843718	    -14.51465545	     -4.60755810	    -14.26059360	     19.66644455	    103.30396312	    -18.01735806	     -0.46515757	    -27.62233477	     22.67410696	     97.64254009
      2.25000000	    -26.40532857	     -0.71182355	     -2.87798867	     -0.37919030	      0.66168681	     -0.59423442	     86.33718067	     -5.93381422	      3.27173005	     86.33254778	      1.50678721	     21.61518779	    -19.34611889	     -7.37944939	     86.89872267	    -10.70628143	      6.32138522	     87.44878131	      1.52626916	     25.64012623	     -9.24905594	     -7.37944939	    -23.68174187	      0.54526382	      0.72890541	    -11.62531085	     -5.08871725	    -13.99434877	     20.56747327	    103.38903298	    -15.09378152	     -0.75410726	    -27.40116477	     23.37901348	     97.75227750
      2.26000000	    -26.84103627	     -0.69226668	     -3.05735317	     -0.37533424	      0.65338059	     -0.59434348	     87.66011254	     -5.99347584	      3.42829962	     88.26520343	      1.54051841	     23.39684280	    -17.87543535	     -7.38278812	     88.23387728	    -10.79437171	      6.76485164	     89.47816963	      1.56168867	     27.05146803	     -8.58844902	     -7.38278812	    -23.87564550	      0.60942883	      0.35784570	     -8.61653545	     -5.50164874	    -11.77821216	     23.73965624	    103.27387911	    -11.82531259	     -1.29836919	    -27.32725659	     23.14939916	     96.63036902
      2.27000000	    -27.13528720	     -0.67401568	     -3.21246415	     -0.37204515	      0.64664248	     -0.59398289	     88.58687959	     -5.94078065	      3.59061636	     89.72510820	      1.56599856	     24.58699290	    -17.07007401	     -7.38621951	     89.28043690	    -10.90676217	      7.13989132	     91.14221082	      1.59073167	     27.65950801	     -8.06371967	     -7.38621951	    -24.23548575	      0.61716328	     -0.09613690	     -4.98369090	     -5.59834852	     -9.74253167	     27.49268599	    102.13265917	     -8.46290510	     -2.15333213	    -26.27617248	     23.40753082	     95.09509359
      2.28000000	    -27.65683709	     -0.88060439	     -3.30696419	     -0.36926171	      0.64073727	     -0.59381351	     89.45975694	     -5.86332345	      3.46707638	     90.74722885	      1.58383793	     25.65084177	    -16.47008873	     -7.44526808	     90.46244585	    -10.95256612	      7.66237101	     92.44868949	      1.61353402	     28.09919416	     -7.99522240	     -7.44526808	    -24.26545999	      0.91235544	      0.02654781	     -1.23481456	     -6.36617333	     -6.08705272	     29.27867713	     82.86478549	     -4.39251893	     -3.99285617	    -18.20474117	     22.47113373	     83.90392461
      2.29000000	    -28.04016604	     -0.96803753	     -3.16693165	     -0.36671147	      0.63573581	     -0.59421009	     90.17889077	     -6.07557868	      3.41767793	     91.71070974	      1.60065384	     25.92579684	    -16.65549904	     -7.44550829	     91.28287262	    -10.63101807	      7.97213516	     93.44911078	      1.63099467	     28.41627979	     -8.23643447	     -7.44550829	    -24.46256745	      1.00773628	     -0.05485342	      1.84713143	     -7.36615105	     -5.96510187	     29.44508353	     83.17142075	     -0.49843174	     -4.82425320	    -17.94957252	     23.51977608	     84.03999452
      2.30000000	    -28.05033024	     -0.92224558	     -2.90609272	     -0.36346822	      0.63286948	     -0.59467392	     90.33144185	     -6.54258080	      3.39682787	     92.50170760	      1.61445936	     26.94168069	    -16.09237112	     -7.46264276	     91.28162605	    -10.19744925	      8.02216662	     93.97630202	      1.64019589	     29.02334632	     -8.76588501	     -7.46264276	    -24.79423787	      0.93681283	     -1.17373469	      6.94280704	     -8.49304137	     -2.44773072	     25.83040455	    101.22426499	      3.49990533	     -5.94021922	    -17.09673594	     24.22855971	     78.71147241
      2.31000000	    -27.72750173	     -0.71516359	     -2.61092262	     -0.35959500	      0.63100985	     -0.59498231	     90.14597267	     -7.06325183	      3.54682475	     93.34686943	      1.62921022	     27.35625549	    -16.15765868	     -7.46300111	     90.78570464	     -9.81641813	      7.83042096	     94.50246501	      1.64937917	     29.64625115	     -9.02267283	     -7.46300111	    -25.33634241	      0.85558819	     -2.25277396	     11.55464166	     -8.26632634	     -2.30544421	     28.81976130	    101.22312934	      7.47590642	     -7.08753980	    -16.81221312	     25.02551347	     78.87647390
      2.32000000	    -27.44560767	     -0.66417899	     -2.53724472	     -0.35562189	      0.62929593	     -0.59498368	     89.89270383	     -7.28227332	      3.61840409	     94.08323622	      1.64206224	     28.48616916	    -15.27493022	     -7.48609623	     90.38686796	     -9.75481139	      7.80897993	     95.11950953	      1.66014862	     30.57933494	     -8.72382546	     -7.48609623	    -25.64495505	      0.95101011	     -1.83633126	     14.89602872	     -7.55932316	     -5.13612124	     35.66750413	     76.53472728	     12.35014771	     -8.05744720	    -14.88851847	     24.77037781	     81.69161966
      2.33000000	    -27.20858849	     -1.04367373	     -2.64535530	     -0.35167057	      0.62792972	     -0.59473023	     89.44793207	     -7.14061819	      3.30160780	     94.59363741	      1.65097042	     28.82653743	    -15.39213692	     -7.48620918	     90.22522246	    -10.00186620	      8.19261336	     95.79901513	      1.67200823	     30.92446028	     -8.83377907	     -7.48620918	    -25.61514059	      1.30915125	     -1.22085619	     18.74200020	     -8.37139378	     -5.08808337	     35.63239137	     76.71597499	     16.88367916	     -8.61397768	    -14.98066616	     26.07272817	     81.66698935
      2.34000000	    -27.05396271	     -1.48431586	     -2.81547887	     -0.34753670	      0.62706157	     -0.59418868	     88.94951234	     -6.85725956	      2.97358893	     94.97546156	      1.65763451	     29.70754577	    -14.97025641	     -7.49144174	     90.11321374	    -10.41609616	      8.61631041	     96.39411692	      1.68239472	     31.64336930	     -8.23298184	     -7.49144174	    -25.01900003	      1.68601897	     -1.65626036	     24.23461777	    -10.82205426	      3.51190458	     29.46512558	     93.68830522	     20.73812742	     -9.46336698	    -17.02129071	     27.50972038	     81.72022065
      2.35000000	    -26.90190507	     -1.45508290	     -2.77095949	     -0.34338939	      0.62636075	     -0.59386101	     88.61217472	     -6.84361256	      3.16836683	     95.46976003	      1.66626165	     30.33700978	    -14.77729215	     -7.49177064	     89.81335287	    -10.43988389	      8.59358023	     96.82930004	      1.68999010	     32.04090387	     -8.19273745	     -7.49177064	    -24.14827834	      1.64337497	     -1.53202923	     28.30060426	    -12.31043051	      6.48848894	     30.52834965	     93.96995830	     25.40074027	    -10.28429763	    -17.57596451	     28.09995075	     82.00261213
      2.36000000	    -26.67133181	     -1.33950174	     -2.61886769	     -0.33958292	      0.62606724	     -0.59378266	     88.24949528	     -6.95450458	      3.35330417	     95.88499504	      1.67350887	     30.70704607	    -14.83600719	     -7.49227224	     89.37246472	    -10.17767353	      8.63454773	     97.17886723	      1.69609120	     32.13368253	     -8.39301699	     -7.49227224	    -23.29258003	      1.51301566	     -1.28165512	     31.72833593	    -11.27968377	      0.45469698	     35.65734443	     92.54460301	     30.25166020	    -10.15983321	    -22.03233782	     31.04077649	     79.08370088
      2.37000000	    -26.29327534	     -1.36608354	     -2.52806851	     -0.33599210	      0.62686358	     -0.59371266	     87.60858405	     -6.90847977	      3.38095089	     96.06444362	      1.67664084	     30.54238899	    -15.50442708	     -7.49274637	     88.76579313	    -10.02500917	      8.77097844	     97.38247394	      1.69964480	     32.10224406	     -8.60282512	     -7.49274637	    -22.52575739	      1.53699537	     -0.55308727	     34.99669431	    -10.01532478	     -7.95056699	     40.02956606	     91.53319109	     35.79250842	     -9.74848253	    -25.12354719	     33.65559564	     74.91989724
      2.38000000	    -25.72411659	     -1.52331685	     -2.54254135	     -0.33222854	      0.62909943	     -0.59317622	     86.53832508	     -6.57207669	      3.36550772	     95.99596103	      1.67544559	     30.66973474	    -15.81345648	     -7.49280173	     87.90140526	    -10.21348758	      8.82796635	     97.45000212	      1.70082339	     32.03325175	     -8.57391888	     -7.49280173	    -21.75446084	      1.53850388	     -0.10295807	     39.14815112	    -11.15123911	     -8.05091690	     40.39540449	     91.84651504	     41.20236904	    -10.18207327	    -24.35708661	     35.39752246	     75.33795297
      2.39000000	    -24.99493637	     -1.72611726	     -2.65473453	     -0.32847429	      0.63217772	     -0.59215683	     85.22447473	     -5.93497929	      3.45102901	     95.87526913	      1.67333912	     30.37486203	    -16.91119948	     -7.49532136	     86.84249177	    -10.64654055	      8.84617050	     97.51357788	      1.70193300	     32.14646616	     -8.31524254	     -7.49532136	    -20.96924222	      1.52272007	      0.27663966	     43.99034431	    -12.96512499	     -5.77642119	     39.74475813	    105.44898308	     46.92130442	    -11.07772136	    -22.89160336	     33.67807465	     99.52315915
      2.40000000	    -24.48083507	     -1.82580093	     -2.43838323	     -0.32494379	      0.63597531	     -0.59191906	     84.05650038	     -5.72523525	      3.64585120	     95.60985638	      1.66870679	     30.45764517	    -17.16818825	     -7.49536675	     85.80235793	    -10.38948547	      8.98075924	     97.22267057	      1.69685571	     31.89576591	     -8.34765690	     -7.49536675	    -20.04598855	      1.57728102	      0.22000645	     48.97546539	    -13.78480433	     -4.74523711	     42.50718059	    105.62979182	     52.35615284	    -11.57241244	    -21.46100602	     36.32422221	     99.91863133
